<?xml version="1.0" standalone="no"?>
<!DOCTYPE svg PUBLIC "-//W3C//DTD SVG 20010904//EN"
 "http://www.w3.org/TR/2001/REC-SVG-20010904/DTD/svg10.dtd">
<svg version="1.0" xmlns="http://www.w3.org/2000/svg"
 width="500.000000pt" height="500.000000pt" viewBox="0 0 500.000000 500.000000"
 preserveAspectRatio="xMidYMid meet">

<g transform="translate(0.000000,500.000000) scale(0.100000,-0.100000)"
fill="#000000" stroke="none">
<path d="M2510 4210 l0 -220 25 0 25 0 0 220 0 220 -25 0 -25 0 0 -220z"/>
<path d="M1554 4172 c-8 -4 23 -69 92 -192 57 -102 108 -186 114 -188 5 -2 16
0 23 5 11 6 -8 48 -89 193 -57 102 -109 186 -116 187 -7 2 -18 0 -24 -5z"/>
<path d="M3457 3956 c-111 -178 -122 -206 -82 -206 5 0 60 82 122 182 85 138
110 185 101 195 -6 7 -14 13 -18 13 -4 0 -59 -83 -123 -184z"/>
<path d="M843 3491 c-11 -17 3 -28 165 -129 97 -60 182 -112 189 -116 7 -4 17
2 22 12 9 17 -9 32 -172 133 -100 63 -184 115 -187 117 -3 1 -11 -7 -17 -17z"/>
<path d="M4076 3326 c-99 -57 -181 -107 -183 -112 -1 -5 1 -15 6 -23 10 -15
-8 -24 258 126 120 67 132 76 123 94 -6 10 -14 19 -18 18 -4 -1 -88 -47 -186
-103z"/>
<path d="M2517 2949 c-9 -17 -31 -36 -47 -42 -29 -11 -43 -40 -17 -34 9 1 13
-27 15 -113 3 -130 12 -150 69 -150 35 0 93 44 78 58 -4 4 -10 1 -12 -5 -3 -7
-13 -13 -24 -13 -18 0 -19 8 -19 114 l0 115 37 3 c39 3 56 29 35 50 -16 16
-36 -1 -21 -18 9 -12 5 -14 -25 -14 -35 0 -36 1 -36 40 0 48 -9 50 -33 9z"/>
<path d="M1988 2935 c-22 -15 -41 -38 -48 -59 -14 -44 5 -93 73 -181 25 -33
44 -61 42 -63 -2 -2 -60 26 -129 62 -110 57 -129 64 -152 56 -101 -39 -150
-148 -93 -209 24 -26 60 -27 82 -3 21 23 22 46 1 63 -14 11 -19 9 -34 -11 -15
-20 -20 -22 -34 -11 -37 31 6 129 46 105 21 -13 169 -221 179 -253 10 -28 8
-37 -9 -60 -13 -17 -29 -26 -48 -26 -16 0 -30 -3 -31 -7 -14 -42 40 -37 83 6
61 61 46 115 -81 280 l-30 39 125 -66 c142 -74 224 -102 273 -91 21 4 52 27
88 66 42 44 58 55 63 43 8 -22 62 -19 86 5 23 23 26 42 6 34 -11 -4 -18 7 -26
38 -34 130 -44 164 -53 176 -14 18 -62 15 -79 -5 -26 -31 -29 -41 -11 -39 13
1 22 -18 40 -78 21 -73 21 -82 8 -103 -23 -35 -43 -28 -55 20 -6 23 -20 72
-31 110 -19 65 -21 67 -53 67 -30 0 -51 -14 -69 -47 -5 -7 -1 -9 11 -6 15 3
21 -8 36 -69 11 -40 25 -88 33 -107 7 -19 11 -36 9 -39 -3 -2 -21 1 -40 8 -28
9 -52 33 -111 113 -88 120 -106 164 -81 202 12 19 25 25 52 25 28 0 35 4 32
17 -5 27 -29 26 -70 -2z"/>
<path d="M2942 2908 c-20 -20 -14 -48 12 -60 47 -21 83 16 51 52 -20 23 -45
26 -63 8z"/>
<path d="M2652 2883 c-10 -4 -10 -8 2 -17 14 -10 14 -22 -6 -122 -12 -61 -19
-118 -15 -127 4 -11 18 -17 40 -17 l35 0 17 93 c10 54 24 97 33 105 20 16 69
16 74 0 3 -8 10 -4 17 10 7 13 10 30 7 38 -7 18 -47 18 -72 -1 -26 -20 -34
-19 -34 5 0 31 -55 50 -98 33z"/>
<path d="M2875 2820 c-3 -5 1 -10 9 -10 9 0 16 -4 16 -8 0 -4 -20 -57 -45
-117 l-44 -110 21 -18 c41 -35 57 -20 104 98 24 60 44 117 44 126 0 36 -87 68
-105 39z"/>
<path d="M3146 2778 c-10 -6 -38 -10 -62 -10 -41 1 -60 -11 -32 -20 7 -3 -12
-42 -50 -103 -34 -55 -62 -104 -62 -111 0 -6 9 -23 21 -38 16 -20 29 -26 59
-26 21 0 42 5 45 10 3 6 -3 10 -14 10 -11 0 -22 4 -26 9 -5 9 101 191 112 191
2 0 18 -7 34 -16 34 -17 59 -6 59 27 0 23 -18 25 -26 4 -7 -19 -15 -19 -39 -1
-18 13 -18 14 3 44 12 16 22 33 22 36 0 9 -23 6 -44 -6z"/>
<path d="M3287 2703 c-12 -12 -7 -50 7 -63 23 -18 61 -8 64 16 5 36 -48 71
-71 47z"/>
<path d="M3210 2635 c11 -13 9 -19 -7 -38 -10 -12 -45 -51 -76 -86 -31 -36
-57 -72 -57 -81 0 -18 30 -50 47 -50 10 0 136 136 166 179 20 30 9 54 -33 76
-39 20 -57 20 -40 0z"/>
<path d="M2445 2475 c-36 -35 -35 -96 1 -124 58 -45 134 -11 134 60 0 50 -35
89 -80 89 -19 0 -40 -9 -55 -25z"/>
<path d="M3306 2483 c-68 -18 -126 -89 -126 -151 0 -42 39 -94 83 -111 51 -19
109 -1 159 48 61 62 63 115 5 177 -32 35 -78 49 -121 37z m111 -69 c10 -28
-14 -60 -77 -103 -64 -42 -106 -52 -116 -26 -10 24 20 59 87 104 65 43 96 51
106 25z"/>
<path d="M540 2435 l0 -25 220 0 220 0 0 25 0 25 -220 0 -220 0 0 -25z"/>
<path d="M4100 2435 l0 -25 218 2 c217 3 217 3 220 26 l3 22 -220 0 -221 0 0
-25z"/>
<path d="M1711 2351 l-40 -59 24 -16 c13 -9 26 -16 29 -16 2 0 21 23 41 51 38
53 39 71 6 88 -18 10 -25 5 -60 -48z"/>
<path d="M1394 2254 c-19 -39 -30 -79 -32 -122 -4 -55 -2 -66 19 -88 41 -43
104 -23 97 31 -4 39 -45 49 -50 13 -4 -31 -30 -29 -45 3 -20 42 14 140 43 121
5 -4 59 -68 118 -142 113 -141 125 -153 148 -145 51 20 108 220 78 275 -13 25
-67 42 -91 30 -26 -15 -36 -58 -16 -77 20 -20 47 -10 47 17 0 22 20 26 38 8
18 -18 14 -67 -8 -116 -15 -33 -23 -41 -34 -35 -9 5 -64 69 -124 143 -132 165
-146 171 -188 84z"/>
<path d="M3517 2261 c4 -15 -15 -24 -109 -56 -62 -21 -116 -43 -119 -48 -11
-17 12 -67 30 -67 10 0 57 13 105 30 90 30 126 29 126 -5 0 -44 -190 -103
-258 -81 -22 7 -23 6 -12 -14 23 -43 69 -62 140 -57 102 6 190 57 190 109 0
29 -38 78 -61 78 -8 0 -6 7 4 18 21 23 21 35 2 71 -17 33 -45 49 -38 22z"/>
<path d="M1941 1843 c1 -21 3 -30 6 -21 2 9 12 19 21 21 15 4 15 5 0 6 -10 0
-18 5 -18 10 0 5 8 12 18 14 13 4 11 5 -5 6 -20 1 -23 -4 -22 -36z"/>
<path d="M2013 1848 c1 -25 7 -33 22 -33 15 0 20 7 21 30 1 28 1 28 -3 3 -6
-37 -30 -36 -37 2 -6 30 -6 30 -3 -2z"/>
<path d="M2090 1845 c0 -32 2 -35 28 -34 23 2 24 2 5 6 -27 5 -30 20 -5 26 16
4 16 5 0 6 -10 0 -18 5 -18 10 0 5 8 12 18 14 13 4 11 5 -5 6 -20 1 -23 -4
-23 -34z"/>
<path d="M2162 1848 c-2 -35 0 -38 26 -37 22 1 23 2 5 6 -16 3 -23 13 -26 36
-4 31 -4 31 -5 -5z"/>
<path d="M2275 1865 c4 -11 10 -28 13 -39 4 -15 7 -12 18 14 18 41 17 50 0 27
-14 -18 -15 -18 -26 0 -11 17 -11 17 -5 -2z"/>
<path d="M2350 1865 c-18 -22 -1 -50 31 -50 20 0 24 5 24 30 0 23 -5 31 -21
33 -11 2 -27 -4 -34 -13z m50 -15 c0 -24 -26 -38 -42 -22 -16 16 -2 42 22 42
13 0 20 -7 20 -20z"/>
<path d="M2443 1848 c1 -25 7 -33 22 -33 15 0 20 7 21 30 1 28 1 28 -3 3 -6
-37 -30 -36 -37 2 -6 30 -6 30 -3 -2z"/>
<path d="M2521 1843 c1 -21 3 -30 6 -20 4 17 6 17 21 3 16 -13 17 -12 16 17
-1 25 -6 33 -22 35 -19 3 -22 -1 -21 -35z m29 17 c0 -5 -4 -10 -10 -10 -5 0
-10 5 -10 10 0 6 5 10 10 10 6 0 10 -4 10 -10z"/>
<path d="M2640 1843 c-3 -23 -2 -39 3 -34 5 5 7 24 5 42 -3 33 -4 33 -8 -8z"/>
<path d="M2680 1865 c-18 -22 -1 -50 31 -50 20 0 24 5 24 30 0 23 -5 31 -21
33 -11 2 -27 -4 -34 -13z m50 -15 c0 -24 -26 -38 -42 -22 -16 16 -2 42 22 42
13 0 20 -7 20 -20z"/>
<path d="M2773 1848 c1 -25 7 -33 22 -33 15 0 20 7 21 30 1 28 1 28 -3 3 -6
-37 -30 -36 -37 2 -6 30 -6 30 -3 -2z"/>
<path d="M2851 1843 c1 -21 3 -30 6 -20 4 17 6 17 22 3 16 -14 17 -13 13 19
-3 26 -9 35 -23 35 -15 0 -19 -7 -18 -37z m29 17 c0 -5 -4 -10 -10 -10 -5 0
-10 5 -10 10 0 6 5 10 10 10 6 0 10 -4 10 -10z"/>
<path d="M2921 1844 c1 -23 4 -30 6 -16 5 27 11 28 40 0 l23 -21 -1 39 c-1 23
-4 30 -6 17 -5 -28 -11 -29 -40 -1 l-23 21 1 -39z"/>
<path d="M3014 1845 c0 -31 3 -35 26 -34 17 1 19 3 8 6 -10 2 -18 8 -18 13 0
5 8 11 18 13 16 4 16 5 0 6 -10 0 -18 5 -18 10 0 5 8 12 18 14 11 3 9 5 -8 6
-23 1 -26 -3 -26 -34z"/>
<path d="M3088 1867 c6 -7 15 -23 19 -35 8 -20 9 -18 20 16 10 32 10 35 -2 18
-13 -17 -15 -17 -21 -3 -3 10 -11 17 -16 17 -7 0 -7 -5 0 -13z"/>
<path d="M976 1586 c-99 -56 -181 -106 -183 -111 -1 -6 1 -16 6 -24 7 -10 50
10 200 94 170 96 189 109 180 126 -5 11 -13 19 -17 18 -4 0 -88 -47 -186 -103z"/>
<path d="M3860 1611 c-9 -18 7 -30 177 -136 182 -114 203 -122 203 -80 -1 8
-152 106 -331 213 -37 22 -38 22 -49 3z"/>
<path d="M1577 938 c-100 -161 -113 -185 -99 -195 9 -7 18 -13 21 -13 3 0 47
66 96 147 150 243 140 224 124 234 -8 5 -17 9 -21 9 -4 0 -58 -82 -121 -182z"/>
<path d="M3292 1073 c-13 -5 -7 -16 136 -270 64 -114 70 -122 87 -109 18 13
13 24 -85 200 -57 102 -108 186 -114 185 -6 0 -17 -3 -24 -6z"/>
<path d="M2510 660 l0 -220 25 0 25 0 0 220 0 220 -25 0 -25 0 0 -220z"/>
</g>
</svg>
