<?xml version="1.0" standalone="no"?>
<!DOCTYPE svg PUBLIC "-//W3C//DTD SVG 20010904//EN"
 "http://www.w3.org/TR/2001/REC-SVG-20010904/DTD/svg10.dtd">
<svg version="1.0" xmlns="http://www.w3.org/2000/svg"
 width="500.000000pt" height="500.000000pt" viewBox="0 0 500.000000 500.000000"
 preserveAspectRatio="xMidYMid meet">

<g transform="translate(0.000000,500.000000) scale(0.100000,-0.100000)"
fill="#000000" stroke="none">
<path d="M1665 4493 c-595 -77 -1056 -503 -1182 -1093 -17 -78 -18 -150 -18
-900 0 -810 0 -816 23 -917 59 -269 181 -493 372 -683 157 -157 331 -264 543
-335 196 -64 205 -65 1077 -65 742 0 793 1 897 20 132 24 254 65 383 130 361
182 621 523 716 940 14 62 18 146 21 503 l5 427 -221 0 c-214 0 -221 1 -221
20 0 19 7 20 221 20 l221 0 -5 388 c-4 371 -6 391 -30 492 -128 531 -529 922
-1063 1037 -65 13 -153 17 -481 20 l-403 4 0 -200 c0 -194 -1 -201 -20 -201
-19 0 -20 7 -20 200 l0 200 -392 -1 c-216 -1 -406 -4 -423 -6z m-68 -295 c28
-51 76 -137 107 -190 53 -94 54 -98 35 -109 -12 -6 -22 -9 -23 -7 -14 19 -206
370 -206 377 0 8 15 18 31 20 3 1 28 -41 56 -91z m1972 25 c4 -3 -218 -361
-228 -367 -3 -2 -13 1 -22 7 -14 10 -1 36 100 198 97 155 119 185 131 176 8
-6 17 -12 19 -14z m-2556 -730 c95 -58 174 -108 176 -110 3 -2 -2 -11 -11 -20
-15 -14 -31 -7 -197 97 -168 105 -193 125 -174 144 10 10 20 5 206 -111z
m3231 21 c4 -9 5 -18 4 -19 -14 -12 -367 -205 -375 -205 -13 0 -27 33 -16 38
4 1 87 47 183 102 96 55 180 99 186 100 7 0 15 -7 18 -16z m-1724 -474 c0 -38
2 -40 30 -40 24 0 29 4 27 19 -3 25 17 32 21 8 5 -26 -16 -47 -49 -47 l-29 0
0 -109 c0 -116 7 -135 41 -105 20 18 23 16 13 -11 -7 -18 -55 -45 -79 -45 -9
0 -27 11 -40 25 -24 23 -25 31 -25 135 0 91 -3 110 -15 110 -26 0 -16 16 20
33 20 9 41 28 47 42 18 39 38 31 38 -15z m-500 0 c0 -16 -5 -19 -29 -14 -22 5
-32 1 -50 -21 -11 -15 -21 -35 -21 -44 0 -46 157 -256 206 -277 43 -18 60 -18
46 -1 -5 6 -20 48 -31 92 -28 102 -39 128 -51 120 -17 -10 -11 11 8 27 26 23
56 30 74 16 9 -7 28 -55 42 -107 30 -112 38 -123 68 -94 20 21 21 23 5 86 -23
90 -35 119 -47 112 -17 -11 -11 11 8 27 57 50 80 31 117 -98 19 -67 35 -108
43 -106 17 3 15 -14 -4 -32 -27 -28 -65 -32 -84 -9 l-17 21 -14 -23 c-8 -12
-36 -42 -64 -65 -48 -42 -50 -42 -110 -37 -49 4 -85 18 -194 74 -74 37 -139
70 -145 72 -5 2 4 -14 21 -35 86 -109 113 -157 113 -198 0 -44 -18 -73 -62
-101 -30 -19 -58 -14 -58 10 0 11 10 15 35 15 43 0 70 34 61 77 -6 27 -97 159
-163 239 l-33 39 -25 -28 c-26 -29 -33 -75 -14 -94 14 -14 39 -6 39 13 0 21
38 17 45 -6 14 -43 -34 -82 -74 -60 -29 15 -41 42 -41 91 0 36 6 48 43 85 68
68 80 68 230 -11 71 -37 126 -61 121 -53 -5 8 -31 44 -57 81 -59 82 -71 118
-53 162 26 61 116 104 116 55z m948 -32 c35 -35 -11 -82 -54 -53 -25 16 -28
23 -18 49 7 19 55 21 72 4z m-274 -24 c9 -3 16 -17 16 -30 l0 -25 40 23 c36
21 40 22 56 7 10 -11 14 -24 9 -38 -6 -21 -25 -29 -25 -11 0 17 -49 11 -68 -8
-11 -11 -24 -49 -31 -93 -7 -40 -18 -82 -23 -91 -11 -21 -37 -23 -63 -4 -18
13 -18 16 3 122 26 130 26 134 6 134 -8 0 -12 5 -9 10 7 11 64 14 89 4z m236
-74 c20 -20 20 -20 -1 -72 -69 -176 -73 -183 -103 -183 -52 0 -53 22 -8 136
46 113 48 125 30 132 -7 3 4 6 25 6 24 1 44 -6 57 -19z m201 -56 l-20 -34 22
-15 c26 -18 38 -19 35 -2 -2 6 4 12 12 12 20 0 19 -25 -2 -39 -13 -8 -25 -6
-48 8 -17 10 -32 16 -34 14 -32 -45 -106 -172 -108 -185 -2 -14 3 -18 25 -18
26 1 27 0 11 -12 -22 -16 -49 -17 -77 -2 -53 28 -49 61 19 171 44 72 53 92 43
104 -13 15 -10 16 41 15 19 -1 46 5 60 12 36 20 44 10 21 -29z m177 -56 c32
-32 -2 -79 -43 -60 -24 11 -35 49 -18 65 11 11 48 8 61 -5z m-89 -63 c53 -27
47 -48 -41 -147 -44 -49 -87 -92 -94 -95 -20 -8 -54 16 -54 38 0 12 32 57 75
104 76 83 85 99 63 108 -8 3 -5 6 5 6 10 1 31 -6 46 -14z m155 -166 c32 -25
56 -69 56 -104 0 -70 -71 -136 -156 -143 -50 -4 -56 -2 -88 30 -67 67 -54 154
33 209 56 36 116 39 155 8z m-2434 -29 c0 -19 -7 -20 -220 -20 -213 0 -220 1
-220 20 0 19 7 20 220 20 213 0 220 -1 220 -20z m808 -46 l22 -15 -40 -60
c-40 -59 -41 -59 -65 -43 -14 9 -25 20 -25 25 0 12 70 109 79 109 3 0 17 -7
29 -16z m807 -19 c41 -40 33 -105 -16 -130 -40 -21 -62 -19 -93 10 -54 50 -19
145 54 145 19 0 40 -9 55 -25z m-1117 -72 c10 -10 66 -75 122 -145 56 -71 108
-128 115 -128 19 0 47 80 43 121 -2 26 -8 35 -25 37 -17 3 -23 -2 -23 -17 0
-29 -15 -34 -40 -13 -18 15 -20 21 -11 44 14 38 54 47 89 21 39 -29 41 -95 7
-189 -28 -76 -53 -108 -80 -102 -10 1 -67 66 -129 143 -61 77 -119 141 -128
143 -30 6 -53 -109 -26 -136 18 -18 38 -14 38 7 0 24 13 33 33 25 22 -8 28
-30 17 -58 -18 -49 -88 -39 -111 16 -28 67 32 248 82 248 4 0 16 -8 27 -17z
m2092 -98 c0 -13 -7 -28 -17 -33 -15 -9 -14 -11 5 -21 59 -31 70 -85 25 -127
-38 -35 -147 -67 -202 -59 -45 7 -101 49 -101 76 0 10 3 10 12 1 18 -18 67
-15 144 9 84 25 114 43 114 69 0 34 -40 34 -140 -1 -89 -31 -93 -32 -106 -14
-8 10 -14 29 -14 41 0 22 24 33 169 80 37 12 55 24 59 37 5 19 7 19 29 -7 12
-15 23 -38 23 -51z m-1602 -322 c-10 -2 -18 -9 -18 -14 0 -5 8 -10 18 -10 15
-1 15 -2 0 -6 -9 -2 -19 -12 -21 -21 -3 -9 -5 0 -6 21 -1 32 2 37 22 36 16 -1
18 -2 5 -6z m67 -53 c8 0 16 12 18 28 4 25 4 25 3 -3 -1 -23 -6 -30 -21 -30
-15 0 -21 8 -22 33 -3 32 -3 32 3 2 3 -16 11 -30 19 -30z m83 53 c-10 -2 -18
-9 -18 -14 0 -5 8 -10 18 -10 16 -1 16 -2 0 -6 -25 -6 -22 -21 5 -26 19 -4 18
-4 -5 -6 -26 -1 -28 2 -28 34 0 30 3 35 23 34 16 -1 18 -2 5 -6z m75 -56 c18
-4 17 -5 -5 -6 -26 -1 -28 2 -26 37 1 36 1 36 5 5 3 -23 10 -33 26 -36z m113
50 c17 23 18 14 0 -27 -11 -26 -14 -29 -18 -14 -3 11 -9 28 -13 39 -6 19 -6
19 5 2 11 -18 12 -18 26 0z m105 -3 c9 -11 10 -20 2 -32 -15 -24 -44 -27 -59
-7 -28 38 27 75 57 39z m54 -44 c8 0 16 12 18 28 4 25 4 25 3 -3 -1 -23 -6
-30 -21 -30 -15 0 -21 8 -22 33 -3 32 -3 32 3 2 3 -16 11 -30 19 -30z m100 22
c0 -27 -2 -30 -12 -16 -10 14 -12 14 -22 -3 -9 -15 -10 -12 -11 20 0 34 2 38
23 35 18 -2 22 -9 22 -36z m78 -33 c-5 -5 -6 11 -3 34 4 41 5 41 8 8 2 -18 0
-37 -5 -42z m100 49 c8 -12 7 -21 -2 -32 -19 -22 -48 -20 -61 5 -23 41 38 68
63 27z m52 -38 c8 0 16 12 18 28 4 25 4 25 3 -3 -1 -23 -6 -30 -21 -30 -15 0
-21 8 -22 33 -3 32 -3 32 3 2 3 -16 11 -30 19 -30z m97 25 c4 -32 3 -33 -13
-19 -16 14 -18 14 -22 -3 -3 -10 -5 -1 -6 20 -1 30 3 37 18 37 14 0 20 -9 23
-35z m78 -5 c5 0 11 10 13 23 3 13 5 7 6 -16 l1 -39 -29 24 c-17 13 -30 30
-30 38 -1 9 5 6 15 -8 8 -12 19 -22 24 -22z m78 33 c-10 -2 -18 -9 -18 -14 0
-5 8 -10 18 -10 16 -1 16 -2 0 -6 -10 -2 -18 -8 -18 -13 0 -5 8 -11 18 -13 13
-4 11 -5 -5 -6 -20 -1 -23 4 -23 34 0 30 3 35 23 34 16 -1 18 -2 5 -6z m56
-10 c6 -14 8 -14 21 3 12 17 12 14 2 -18 -11 -34 -12 -36 -20 -16 -4 12 -13
28 -19 35 -7 8 -7 13 0 13 5 0 13 -7 16 -17z m-173 -46 c-10 -9 -11 -8 -5 6 3
10 9 15 12 12 3 -3 0 -11 -7 -18z m-1747 -153 c4 -9 5 -18 4 -19 -20 -15 -369
-205 -376 -205 -9 0 -26 30 -20 35 14 13 366 205 374 205 7 0 15 -7 18 -16z
m2878 -156 c168 -104 200 -133 163 -145 -6 -2 -92 48 -192 110 -154 96 -180
116 -172 130 6 9 13 17 16 17 4 0 87 -50 185 -112z m-2332 -414 c0 -18 -226
-364 -237 -364 -33 0 -17 38 89 207 97 156 115 180 130 172 10 -5 18 -12 18
-15z m1698 -198 c56 -102 102 -189 102 -194 0 -9 -30 -26 -35 -20 -13 17 -205
368 -205 376 0 9 15 19 30 21 3 0 51 -82 108 -183z m-868 -246 c0 -213 -1
-220 -20 -220 -19 0 -20 7 -20 220 0 213 1 220 20 220 19 0 20 -7 20 -220z"/>
<path d="M3273 2495 c-69 -46 -96 -81 -82 -107 7 -14 16 -17 32 -12 39 11 101
51 136 87 66 69 4 92 -86 32z"/>
<path d="M2318 1968 c-8 -21 2 -38 22 -38 19 0 34 25 24 41 -8 13 -41 11 -46
-3z"/>
<path d="M2490 1970 c0 -5 7 -10 15 -10 8 0 15 5 15 10 0 6 -7 10 -15 10 -8 0
-15 -4 -15 -10z"/>
<path d="M2648 1968 c-8 -21 2 -38 22 -38 19 0 34 25 24 41 -8 13 -41 11 -46
-3z"/>
<path d="M2820 1970 c0 -5 5 -10 10 -10 6 0 10 5 10 10 0 6 -4 10 -10 10 -5 0
-10 -4 -10 -10z"/>
</g>
</svg>
